<svg xmlns="http://www.w3.org/2000/svg" xmlns:xlink="http://www.w3.org/1999/xlink" version="1.1" x="0px" y="0px" width="100.0px" height="100px" viewBox="0 0 512 512" enable-background="new 0 0 512 512" xml:space="preserve">
<g id="Layer_2">
	<g>
		<path d="M359.849,444h-0.003c-22.319,0-52.904-9.108-86.12-25.647c-35.828-17.837-71.127-43.625-102.081-74.577    c-37.3-37.308-67.513-82.438-85.072-127.075c-17.225-43.793-18.765-74.363-4.579-90.861c0.24-0.279,0.5-0.541,0.775-0.785    c3.502-3.087,28.209-24.608,44.03-38.382l0.307-0.286c6.351-6.313,13.105-9.515,20.077-9.515c9.338,0,17.56,5.868,22.139,11.359    c0.033,0.039,0.064,0.078,0.097,0.118c1.311,1.634,28.164,35.428,44.129,55.521l0.312,0.362    c10.405,11.317,10.292,28.885-0.285,40.07c-0.349,0.37-0.732,0.705-1.146,1.002c-2.638,1.894-13.758,9.424-23.379,15.883    l-1.273,0.854l0.495,1.451c7.143,20.933,27.03,49.129,53.201,75.426c9.896,9.945,44.241,42.814,70.719,48.257l1.311,0.27    l0.749-1.108c3.942-5.827,14.54-21.463,16.206-23.8c0.125-0.176,0.258-0.346,0.396-0.511c6.65-7.894,15.343-9.072,19.932-9.072    c5.912,0,11.549,1.963,14.712,5.123l0.188,0.167c22.247,17.268,56.842,44.143,60.969,47.415c0.277,0.22,0.54,0.457,0.786,0.712    c11.2,11.602,11.909,27.769,1.91,41.429c-0.194,0.417-0.425,0.816-0.688,1.194c-0.997,1.455-10.277,14.835-22.999,27.723    C387.792,434.82,372.377,444,359.849,444z M93.804,136.656c-5.553,6.878-11.485,25.515,7.658,74.188    c16.772,42.639,45.716,85.83,81.497,121.618c29.745,29.744,63.598,54.492,97.897,71.568C311.45,419.264,340.241,428,359.846,428    h0.003c7.635,0,20.505-8.42,34.428-22.524c10.749-10.889,18.801-22.106,20.807-24.978c0.259-0.585,0.586-1.137,0.976-1.645    c5.662-7.365,5.728-14.996,0.208-21.011c-5.688-4.479-38.836-30.229-60.391-46.958l-0.494-0.384    c-0.265-0.205-0.517-0.427-0.753-0.664l-0.183-0.183c-0.473-0.238-1.775-0.701-3.662-0.701c-2.151,0-5.173,0.556-7.504,3.16    c-1.85,2.644-10.182,14.918-15.778,23.189l-3.747,5.538c-1.814,2.681-5.065,4.003-8.237,3.353l-6.549-1.347    c-30.015-6.169-65.133-38.869-78.839-52.643c-27.803-27.938-49.112-58.422-57.002-81.545l-2.477-7.257    c-1.169-3.426,0.107-7.209,3.112-9.227l6.367-4.274c10.036-6.736,19.188-12.945,22.289-15.117    c4.441-5.191,4.316-12.717-0.394-17.781c-0.071-0.077-0.142-0.155-0.21-0.235l-0.506-0.589c-0.066-0.078-0.132-0.156-0.195-0.236    c-15.771-19.849-42.301-53.235-44.126-55.518c-2.332-2.77-6.431-5.554-9.807-5.554c-3.253,0-6.617,2.682-8.866,4.931    c-0.065,0.066-0.133,0.131-0.201,0.195l-0.505,0.471c-0.067,0.062-0.135,0.123-0.203,0.183    C122.752,111.408,98.611,132.437,93.804,136.656z"/>
	</g>
</g>
<g id="Layer_3">
</g>
</svg>