<svg xmlns="http://www.w3.org/2000/svg" xmlns:xlink="http://www.w3.org/1999/xlink" version="1.1" id="Your_Icon" x="0px" y="0px" width="100px" height="100px" viewBox="0 0 100 100" enable-background="new 0 0 100 100" xml:space="preserve">
<g>
	<g>
		<g>
			<g>
			</g>
		</g>
		<g>
		</g>
	</g>
</g>
<path d="M62.74,16.03H35.425c-2.841,0-5.146,2.303-5.146,5.146v3.729H10.083c-2.842,0-5.146,2.304-5.146,5.146v47.727  c0,2.843,2.303,5.146,5.146,5.146h79.183c2.844,0,5.146-2.304,5.146-5.146V30.643c0-2.842-2.303-5.146-5.146-5.146H67.887v-4.321  C67.887,18.333,65.582,16.03,62.74,16.03L62.74,16.03L62.74,16.03z M62.74,21.176v9.467h26.525v47.134H10.083V30.05h25.342v-8.875  H62.74"/>
<path d="M50.705,67.588c-6.888,0-12.491-5.604-12.491-12.49c0-6.887,5.603-12.49,12.491-12.49c6.887,0,12.489,5.603,12.489,12.49  C63.193,61.984,57.592,67.588,50.705,67.588L50.705,67.588z M50.705,38.492c-9.157,0-16.606,7.448-16.606,16.606  c0,9.156,7.449,16.605,16.606,16.605c9.157,0,16.606-7.449,16.606-16.605C67.311,45.94,59.861,38.492,50.705,38.492L50.705,38.492z"/>
<path d="M85.999,33.986H63.614c-0.568,0-1.029,0.461-1.029,1.029v3.602c0,0.568,0.461,1.029,1.029,1.029h22.385  c0.568,0,1.028-0.461,1.028-1.029v-3.602C87.027,34.447,86.567,33.986,85.999,33.986L85.999,33.986z"/>
</svg>