<svg xmlns="http://www.w3.org/2000/svg" xmlns:xlink="http://www.w3.org/1999/xlink" version="1.1" id="Capa_1" x="0px" y="0px" width="100px" height="100px" viewBox="0 0 100 100" enable-background="new 0 0 100 100" xml:space="preserve">
<g id="Capa_33">
	<g>
		<path d="M17.049,67.633L17.049,67.633c-2.973,0-5.758-1.594-7.271-4.158c-1.141-1.94-1.457-4.209-0.892-6.389    c0.566-2.18,1.946-4.008,3.885-5.146c1.297-0.763,2.772-1.165,4.267-1.165c2.974,0,5.757,1.593,7.263,4.157    c1.144,1.94,1.462,4.209,0.899,6.385s-1.941,4.004-3.88,5.146C20.024,67.229,18.546,67.633,17.049,67.633z M17.038,52.247    c-1.232,0-2.45,0.331-3.52,0.962c-1.601,0.938-2.739,2.448-3.206,4.247c-0.468,1.798-0.206,3.672,0.734,5.271    c1.249,2.118,3.549,3.435,6.002,3.435l0,0c1.235,0,2.453-0.335,3.524-0.968c1.602-0.942,2.738-2.45,3.204-4.245    c0.465-1.797,0.201-3.668-0.743-5.271C21.79,53.562,19.493,52.247,17.038,52.247z"/>
		<path d="M47.294,95L36.229,79.133l-6.978-12.507c-0.312-0.438-0.55-0.86-0.734-1.303c-0.935-2.261-0.672-4.818,0.703-6.845    l5.555-10.186l-3.13-15.057l5.72-1.589l5.504,16.057c0.286,1.031,0.16,2.113-0.331,3.017l-0.655,1.202l8.64-3.59l-2.198-12.684    c-0.138-0.824-0.064-1.663,0.21-2.43l7.933-22.308l9.05,3.215l-7.512,21.123l2.571,14.829l9.706-2.866    c1.513-0.448,3.209-0.103,4.419,0.896l16.684,13.755l-6.113,7.408L70.555,57.144c0,0-13.2,4.03-13.43,4.134l-17.78,7.391    l3.599,6.77l9.417,16.411L47.294,95z M33.365,34.284l2.961,14.239l-5.851,10.722c-1.133,1.676-1.344,3.714-0.599,5.517    c0.141,0.341,0.332,0.676,0.619,1.084l7.09,12.697l10.115,14.469l2.675-1.663l-8.72-15.2l-4.37-8.219l19.741-8.27l13.859-4.149    l14.186,11.688l4.241-5.134L73.766,49.243c-0.838-0.691-2.014-0.931-3.065-0.621l-11.29,3.333l-2.918-16.837l0.063-0.183    l7.085-19.918l-6.277-2.23l-7.44,20.924c-0.191,0.533-0.241,1.116-0.146,1.689l2.398,13.837l-13.583,5.642l2.653-4.865    c0.31-0.571,0.389-1.255,0.218-1.88l-5.042-14.701L33.365,34.284z"/>
		<path d="M41.556,21.854L41.556,21.854c-1.336,0-2.675-0.327-3.871-0.944c-1.999-1.032-3.477-2.781-4.16-4.926    c-0.683-2.145-0.491-4.426,0.542-6.422C35.518,6.748,38.384,5,41.549,5c1.334,0,2.672,0.327,3.867,0.945    c2.002,1.03,3.484,2.778,4.168,4.92c0.686,2.143,0.494,4.426-0.54,6.428C47.593,20.105,44.723,21.854,41.556,21.854z M41.549,6.47    c-2.612,0-4.978,1.443-6.174,3.765c-0.852,1.649-1.011,3.532-0.448,5.301c0.564,1.77,1.783,3.214,3.433,4.066    c1.002,0.518,2.078,0.78,3.195,0.78c2.615,0,4.984-1.443,6.183-3.765c0.853-1.653,1.011-3.536,0.445-5.305    c-0.564-1.768-1.788-3.21-3.441-4.062C43.74,6.733,42.666,6.47,41.549,6.47z"/>
		<path d="M87.888,31.788c-0.771-1.151-1.667-2.291-2.661-3.387l1.09-0.988c1.042,1.148,1.981,2.344,2.793,3.555L87.888,31.788z     M83.725,26.852c-1.027-0.992-2.136-1.927-3.297-2.783l0.873-1.185c1.213,0.894,2.372,1.873,3.446,2.91L83.725,26.852z     M78.648,22.848c-1.202-0.769-2.473-1.47-3.779-2.084l0.628-1.331c1.363,0.642,2.691,1.374,3.943,2.177L78.648,22.848z     M72.89,19.906c-1.319-0.521-2.701-0.971-4.108-1.336l0.371-1.424c1.464,0.381,2.902,0.85,4.276,1.394L72.89,19.906z"/>
	</g>
</g>
</svg>